<?xml version="1.0" encoding="UTF-8"?>
<!DOCTYPE svg PUBLIC "-//W3C//DTD SVG 1.1//EN" "http://www.w3.org/Graphics/SVG/1.1/DTD/svg11.dtd">
<svg xmlns="http://www.w3.org/2000/svg" version="1.1" width="500px" height="500px" style="shape-rendering:geometricPrecision; text-rendering:geometricPrecision; image-rendering:optimizeQuality; fill-rule:evenodd; clip-rule:evenodd" xmlns:xlink="http://www.w3.org/1999/xlink">
  <g>
    <path style="opacity:1" fill="#0a3042" d="M 235.5,125.5 C 288.251,122.79 328.751,143.456 357,187.5C 382.069,236.506 378.402,283.173 346,327.5C 309.836,367.996 265.336,381.496 212.5,368C 161.933,349.72 133.1,313.887 126,260.5C 124.145,199.679 150.978,157.179 206.5,133C 216.253,130.313 225.919,127.813 235.5,125.5 Z"/>
  </g>
  <g>
    <path style="opacity:1" fill="#589b8c" d="M 275.5,155.5 C 282.241,155.39 284.408,158.39 282,164.5C 272.5,172 263,179.5 253.5,187C 247.24,189.412 244.407,187.245 245,180.5C 255.356,172.302 265.522,163.969 275.5,155.5 Z"/>
  </g>
  <g>
    <path style="opacity:1" fill="#589b8c" d="M 301.5,173.5 C 308.745,173.555 310.745,176.722 307.5,183C 289.5,197 271.5,211 253.5,225C 247.24,227.412 244.407,225.245 245,218.5C 264.021,203.636 282.854,188.636 301.5,173.5 Z"/>
  </g>
  <g>
    <path style="opacity:1" fill="#589b8c" d="M 317.5,199.5 C 324.745,199.555 326.745,202.722 323.5,209C 300.167,226.667 276.833,244.333 253.5,262C 247.24,264.412 244.407,262.245 245,255.5C 269.326,236.934 293.492,218.268 317.5,199.5 Z"/>
  </g>
  <g>
    <path style="opacity:1" fill="#0e634a" d="M 293.5,264.5 C 300.241,264.39 302.408,267.39 300,273.5C 285.077,284.712 270.243,296.045 255.5,307.5C 254.667,320.154 254.167,332.82 254,345.5C 251,349.5 248,349.5 245,345.5C 244.333,331.167 244.333,316.833 245,302.5C 261.64,290.351 277.806,277.684 293.5,264.5 Z"/>
  </g>
</svg>
